<?xml version="1.0" encoding="UTF-8"?>
<svg id="Capa_2" data-name="Capa 2" xmlns="http://www.w3.org/2000/svg" viewBox="0 0 429.71 429.75">
  <defs>
    <style>
      .cls-1, .cls-2 {
        fill: #00a09b;
      }

      .cls-1, .cls-2, .cls-3, .cls-4 {
        stroke-width: 0px;
      }

      .cls-2 {
        fill-rule: evenodd;
      }

      .cls-3 {
        fill: #00cac4;
      }

      .cls-4 {
        fill: #f6e70f;
      }
    </style>
  </defs>
  <g id="Recursos">
    <g id="Gato_LalaWeen" data-name="Gato LalaWeen">
      <g>
        <path class="cls-4" d="m326.66,16.95c-1.03-1.03-16.57,12.53-40.13,34.27,1.72,1.25,3.24,2.4,4.53,3.42l35.61-37.69Z"/>
        <path class="cls-4" d="m20.42,306.3c-4.67,4.67-4.67,12.23,0,16.9,4.67,4.67,12.24,4.67,16.9,0l11.68-12.36c-3.81-7.31-7.18-14.84-10.08-22.55-11.65,11.32-18.5,18.01-18.5,18.01Z"/>
        <path class="cls-4" d="m148.86,205.14l43.95-46.51c-2.39-4.25-4.53-8.54-6.43-12.74-14.32,13.71-28.79,27.62-42.9,41.21,1.37,5.59,2.99,11.15,4.89,16.66.16.46.33.92.5,1.38Z"/>
        <path class="cls-4" d="m238.12,270.57c-1.08-1.26-1.84-2.81-2.13-4.55-.79-4.77,2.17-9.36,6.84-10.6,3.85-1.02,8.01-1.95,12.37-2.78l2.43-2.55-19.78-1.13c-12.02,11.62-23.96,23.18-35.6,34.46,4.33,3.73,8.85,7.26,13.54,10.58l22.32-23.43Z"/>
        <path class="cls-4" d="m72.91,409.34c-4.67,4.67-4.67,12.24,0,16.91,4.67,4.67,12.24,4.67,16.9,0l33.98-35.67c-6.51-3.93-12.73-8.17-18.65-12.72-19.97,19.49-32.24,31.49-32.24,31.49Z"/>
        <path class="cls-4" d="m277.76,228.96c-4.1-2.71-7.73-5.38-10.87-8.02-2.74,2.64-5.48,5.28-8.23,7.93,5.87.31,11.88.72,18.03,1.22l1.07-1.12Z"/>
        <path class="cls-4" d="m429.71,69.45c-1.58-1.58-43.21,37.08-97.51,88.84,2.67,1.07,5.73,2.5,8.66,4.43l88.85-93.27Z"/>
        <path class="cls-4" d="m421.35.04c-1.43-1.43-41.26,35.7-95.79,87.87,2.13,2.33,3.97,4.39,5.53,6.19L421.35.04Z"/>
        <path class="cls-4" d="m3.5,400.98c-4.67,4.67-4.67,12.24,0,16.9,4.67,4.67,12.24,4.67,16.9,0l60.01-62.54c-4.85-5.22-9.42-10.66-13.67-16.31-38.03,37.2-63.25,61.95-63.25,61.95Z"/>
        <path class="cls-4" d="m166.46,241.74c3,4.8,6.2,9.44,9.61,13.92l132.52-138.11c-5.54.43-11.04,1.21-16.47,2.45-39.73,38.24-83.98,81.16-125.66,121.73Z"/>
      </g>
      <g>
        <path class="cls-1" d="m160.98,373.52C64.72,326.6,24.73,210.53,71.65,114.28c7.34-15.05,16.37-28.72,26.76-40.91-17.62,16.05-32.56,35.64-43.64,58.36-46.92,96.25-6.93,212.32,89.32,259.24,81.21,39.59,176.51,17.29,232.5-48.46-56.99,51.94-142.08,66.84-215.62,30.99Z"/>
        <path class="cls-3" d="m394.59,323.76c-48.96,19.5-105.64,19.08-156.74-5.83-96.25-46.92-136.24-162.99-89.32-259.24,7.07-14.51,15.72-27.72,25.63-39.57-28.84,11.48-54.99,29.88-75.75,54.25-10.38,12.18-19.42,25.85-26.76,40.91-46.92,96.26-6.93,212.32,89.32,259.24,73.54,35.85,158.63,20.95,215.62-30.99,6.37-5.8,12.39-12.06,17.99-18.76Z"/>
      </g>
      <g>
        <path class="cls-2" d="m404.13,265.43c2.41-.01,4.73-1.49,6.68-3.25,3.04-2.74,6.04-5.75,8.23-9.17,2.24-3.5.97-6.82-3.53-7.03-3.68-.17-7.37-.25-11.06-.23h-.63c-3.69-.01-7.38.06-11.07.23-4.5.21-5.77,3.53-3.52,7.03,2.19,3.42,5.18,6.43,8.22,9.17,1.95,1.76,4.27,3.23,6.68,3.25Z"/>
        <path class="cls-2" d="m217.54,176.46c-19.24-19.23-29.98-50.49-34.18-68.43-8.18-34.98.97-71.46,14.25-88.9,37.35,6.93,81.24,36.94,90.46,45.21,27.36,24.52,38,38.54,42.51,43.6-42.51-1.77-85.33,7.48-113.04,68.52Z"/>
        <path class="cls-2" d="m334.55,258.26c-27.46,1.91-60.21,4.2-89.31,6.22,25-6.65,62.8-9.19,89.31-6.22Z"/>
        <path class="cls-2" d="m209.68,237.95c36.79-1.7,73.46,1.33,110.02,6.29-36.67-2.1-73.35-4.19-110.02-6.29Z"/>
        <path class="cls-2" d="m245.55,298.84c28.15-8.03,56.31-16.06,84.46-24.08.19.66.37,1.33.56,1.99-28.2,8.01-56.4,16.01-84.6,24.02-.14-.64-.28-1.28-.42-1.92Z"/>
        <path class="cls-2" d="m323.54,165.16c-28.53-3.53-54.43,5.57-63.45,24.65-3.96,25.68,40.77,45.82,76.18,44.31,11.77-.5,28.18-1.4,39.58-10.63.1-11.78-20.92-49.16-52.31-58.32Zm28.97,41.42c-.56,7.42-3.51,22.84-6.9,25.1-6.42-6.95-12.24-25.16-10.93-32.63.28-9.51,5.52-19.01,8.48-18.32,4.52-.45,10.4,12,9.35,25.85Z"/>
      </g>
    </g>
  </g>
</svg>